<svg xmlns="http://www.w3.org/2000/svg" viewBox="0 0 468.76 457.04"><defs><style>.a{fill:#00005b;}.b{fill:#99f;}</style></defs><title>adobe-audition</title><rect class="a" width="468.76" height="457.04" rx="83.01"/><path class="b" d="M184.23,273.44H111.59l-14.78,46A3.69,3.69,0,0,1,93,322.27H56.24c-2.09,0-2.83-1.15-2.2-3.45l62.9-180.39q.93-2.82,1.88-6.44a58.2,58.2,0,0,0,1.54-12.46,1.93,1.93,0,0,1,1.65-2.2,1.69,1.69,0,0,1,.55,0h50c1.46,0,2.3.52,2.51,1.57l71.11,200.23q.94,3.15-1.89,3.14H203.41a2.89,2.89,0,0,1-3.14-2.2Zm-61.32-38.78h49.68q-1.87-6.28-4.4-14.15t-5.34-16.83q-2.83-9-5.66-17.92T152,168.46q-2.35-8.33-4.25-15.25h-.31a253.56,253.56,0,0,1-6.61,25.16q-4.4,14.15-9,28.93t-9,27.36Z"/><path class="b" d="M396.18,168.38V288.12q0,7.86.15,14T397,312.8c.32,3,.58,4.87.79,7,.21,1.68-.53,2.51-2.2,2.51H361.9a3.68,3.68,0,0,1-3.77-2.2,45.1,45.1,0,0,1-1.1-4.87,20.52,20.52,0,0,1-.48-4.13,56,56,0,0,1-22,12.11,85,85,0,0,1-21.7,3,65.07,65.07,0,0,1-21.22-3.3A41.49,41.49,0,0,1,275,312.17a50.33,50.33,0,0,1-11-18.86A86.07,86.07,0,0,1,260,265.48V168.7a2.22,2.22,0,0,1,2.51-2.52H299.9a2.23,2.23,0,0,1,2.52,2.52v91.74q0,12.9,5.66,20.29c3.77,4.93,11.37,7.39,20.17,7.39a35.86,35.86,0,0,0,13.21-2.36,50,50,0,0,0,12.39-6.45V168.38c0-1.46.94-2.2,2.83-2.2H394a2,2,0,0,1,2.2,1.66A2.44,2.44,0,0,1,396.18,168.38Z"/></svg>